<svg width="458" height="348" viewBox="0 0 458 348" fill="none" xmlns="http://www.w3.org/2000/svg">
<g id="Component 1">
<g id="Circles2">
<path id="Vector" d="M6.46692 254.934C10.0385 254.934 12.9338 252.038 12.9338 248.467C12.9338 244.895 10.0385 242 6.46692 242C2.89535 242 0 244.895 0 248.467C0 252.038 2.89535 254.934 6.46692 254.934Z" fill="#F2F2F2"/>
<path id="Vector_2" d="M6.46692 280.707C10.0385 280.707 12.9338 277.812 12.9338 274.24C12.9338 270.669 10.0385 267.773 6.46692 267.773C2.89535 267.773 0 270.669 0 274.24C0 277.812 2.89535 280.707 6.46692 280.707Z" fill="#F2F2F2"/>
<path id="Vector_3" d="M6.46692 306.48C10.0385 306.48 12.9338 303.585 12.9338 300.013C12.9338 296.442 10.0385 293.547 6.46692 293.547C2.89535 293.547 0 296.442 0 300.013C0 303.585 2.89535 306.48 6.46692 306.48Z" fill="#F2F2F2"/>
<path id="Vector_4" d="M33.4669 254.934C37.0385 254.934 39.9338 252.038 39.9338 248.467C39.9338 244.895 37.0385 242 33.4669 242C29.8954 242 27 244.895 27 248.467C27 252.038 29.8954 254.934 33.4669 254.934Z" fill="#F2F2F2"/>
<path id="Vector_5" d="M33.4669 280.707C37.0385 280.707 39.9338 277.812 39.9338 274.24C39.9338 270.669 37.0385 267.773 33.4669 267.773C29.8954 267.773 27 270.669 27 274.24C27 277.812 29.8954 280.707 33.4669 280.707Z" fill="#F2F2F2"/>
<path id="Vector_6" d="M33.4669 306.48C37.0385 306.48 39.9338 303.585 39.9338 300.013C39.9338 296.442 37.0385 293.547 33.4669 293.547C29.8954 293.547 27 296.442 27 300.013C27 303.585 29.8954 306.48 33.4669 306.48Z" fill="#F2F2F2"/>
<path id="Vector_7" d="M60.4669 254.934C64.0385 254.934 66.9338 252.038 66.9338 248.467C66.9338 244.895 64.0385 242 60.4669 242C56.8954 242 54 244.895 54 248.467C54 252.038 56.8954 254.934 60.4669 254.934Z" fill="#F2F2F2"/>
<path id="Vector_8" d="M60.4669 280.707C64.0385 280.707 66.9338 277.812 66.9338 274.24C66.9338 270.669 64.0385 267.773 60.4669 267.773C56.8954 267.773 54 270.669 54 274.24C54 277.812 56.8954 280.707 60.4669 280.707Z" fill="#F2F2F2"/>
<path id="Vector_9" d="M60.4669 306.48C64.0385 306.48 66.9338 303.585 66.9338 300.013C66.9338 296.442 64.0385 293.547 60.4669 293.547C56.8954 293.547 54 296.442 54 300.013C54 303.585 56.8954 306.48 60.4669 306.48Z" fill="#F2F2F2"/>
<path id="Vector_10" d="M87.4669 254.934C91.0385 254.934 93.9338 252.038 93.9338 248.467C93.9338 244.895 91.0385 242 87.4669 242C83.8954 242 81 244.895 81 248.467C81 252.038 83.8954 254.934 87.4669 254.934Z" fill="#F2F2F2"/>
<path id="Vector_11" d="M87.4669 280.707C91.0385 280.707 93.9338 277.812 93.9338 274.24C93.9338 270.669 91.0385 267.773 87.4669 267.773C83.8954 267.773 81 270.669 81 274.24C81 277.812 83.8954 280.707 87.4669 280.707Z" fill="#F2F2F2"/>
<path id="Vector_12" d="M87.4669 306.48C91.0385 306.48 93.9338 303.585 93.9338 300.013C93.9338 296.442 91.0385 293.547 87.4669 293.547C83.8954 293.547 81 296.442 81 300.013C81 303.585 83.8954 306.48 87.4669 306.48Z" fill="#F2F2F2"/>
<path id="Vector_13" d="M109.467 254.934C113.038 254.934 115.934 252.038 115.934 248.467C115.934 244.895 113.038 242 109.467 242C105.895 242 103 244.895 103 248.467C103 252.038 105.895 254.934 109.467 254.934Z" fill="#F2F2F2"/>
<path id="Vector_14" d="M109.467 280.707C113.038 280.707 115.934 277.812 115.934 274.24C115.934 270.669 113.038 267.773 109.467 267.773C105.895 267.773 103 270.669 103 274.24C103 277.812 105.895 280.707 109.467 280.707Z" fill="#F2F2F2"/>
<path id="Vector_15" d="M109.467 306.48C113.038 306.48 115.934 303.585 115.934 300.013C115.934 296.442 113.038 293.547 109.467 293.547C105.895 293.547 103 296.442 103 300.013C103 303.585 105.895 306.48 109.467 306.48Z" fill="#F2F2F2"/>
<path id="Vector_16" d="M136.467 254.934C140.038 254.934 142.934 252.038 142.934 248.467C142.934 244.895 140.038 242 136.467 242C132.895 242 130 244.895 130 248.467C130 252.038 132.895 254.934 136.467 254.934Z" fill="#F2F2F2"/>
<path id="Vector_17" d="M136.467 280.707C140.038 280.707 142.934 277.812 142.934 274.24C142.934 270.669 140.038 267.773 136.467 267.773C132.895 267.773 130 270.669 130 274.24C130 277.812 132.895 280.707 136.467 280.707Z" fill="#F2F2F2"/>
<path id="Vector_18" d="M136.467 306.48C140.038 306.48 142.934 303.585 142.934 300.013C142.934 296.442 140.038 293.547 136.467 293.547C132.895 293.547 130 296.442 130 300.013C130 303.585 132.895 306.48 136.467 306.48Z" fill="#F2F2F2"/>
<path id="Vector_19" d="M163.467 254.934C167.038 254.934 169.934 252.038 169.934 248.467C169.934 244.895 167.038 242 163.467 242C159.895 242 157 244.895 157 248.467C157 252.038 159.895 254.934 163.467 254.934Z" fill="#F2F2F2"/>
<path id="Vector_20" d="M163.467 280.707C167.038 280.707 169.934 277.812 169.934 274.24C169.934 270.669 167.038 267.773 163.467 267.773C159.895 267.773 157 270.669 157 274.24C157 277.812 159.895 280.707 163.467 280.707Z" fill="#F2F2F2"/>
<path id="Vector_21" d="M163.467 306.48C167.038 306.48 169.934 303.585 169.934 300.013C169.934 296.442 167.038 293.547 163.467 293.547C159.895 293.547 157 296.442 157 300.013C157 303.585 159.895 306.48 163.467 306.48Z" fill="#F2F2F2"/>
<path id="Vector_22" d="M190.467 254.934C194.038 254.934 196.934 252.038 196.934 248.467C196.934 244.895 194.038 242 190.467 242C186.895 242 184 244.895 184 248.467C184 252.038 186.895 254.934 190.467 254.934Z" fill="#F2F2F2"/>
<path id="Vector_23" d="M190.467 280.707C194.038 280.707 196.934 277.812 196.934 274.24C196.934 270.669 194.038 267.773 190.467 267.773C186.895 267.773 184 270.669 184 274.24C184 277.812 186.895 280.707 190.467 280.707Z" fill="#F2F2F2"/>
<path id="Vector_24" d="M190.467 306.48C194.038 306.48 196.934 303.585 196.934 300.013C196.934 296.442 194.038 293.547 190.467 293.547C186.895 293.547 184 296.442 184 300.013C184 303.585 186.895 306.48 190.467 306.48Z" fill="#F2F2F2"/>
</g>
<g id="Circles1">
<path id="Vector_25" d="M302.467 53.9338C306.038 53.9338 308.934 51.0385 308.934 47.4669C308.934 43.8953 306.038 41 302.467 41C298.895 41 296 43.8953 296 47.4669C296 51.0385 298.895 53.9338 302.467 53.9338Z" fill="#F2F2F2"/>
<path id="Vector_26" d="M302.467 79.7071C306.038 79.7071 308.934 76.8117 308.934 73.2402C308.934 69.6686 306.038 66.7733 302.467 66.7733C298.895 66.7733 296 69.6686 296 73.2402C296 76.8117 298.895 79.7071 302.467 79.7071Z" fill="#F2F2F2"/>
<path id="Vector_27" d="M302.467 105.48C306.038 105.48 308.934 102.585 308.934 99.0135C308.934 95.4419 306.038 92.5466 302.467 92.5466C298.895 92.5466 296 95.4419 296 99.0135C296 102.585 298.895 105.48 302.467 105.48Z" fill="#F2F2F2"/>
<path id="Vector_28" d="M302.467 131.254C306.038 131.254 308.934 128.358 308.934 124.787C308.934 121.215 306.038 118.32 302.467 118.32C298.895 118.32 296 121.215 296 124.787C296 128.358 298.895 131.254 302.467 131.254Z" fill="#F2F2F2"/>
<path id="Vector_29" d="M329.467 53.9338C333.038 53.9338 335.934 51.0385 335.934 47.4669C335.934 43.8953 333.038 41 329.467 41C325.895 41 323 43.8953 323 47.4669C323 51.0385 325.895 53.9338 329.467 53.9338Z" fill="#F2F2F2"/>
<path id="Vector_30" d="M329.467 79.7071C333.038 79.7071 335.934 76.8117 335.934 73.2402C335.934 69.6686 333.038 66.7733 329.467 66.7733C325.895 66.7733 323 69.6686 323 73.2402C323 76.8117 325.895 79.7071 329.467 79.7071Z" fill="#F2F2F2"/>
<path id="Vector_31" d="M329.467 105.48C333.038 105.48 335.934 102.585 335.934 99.0135C335.934 95.4419 333.038 92.5466 329.467 92.5466C325.895 92.5466 323 95.4419 323 99.0135C323 102.585 325.895 105.48 329.467 105.48Z" fill="#F2F2F2"/>
<path id="Vector_32" d="M329.467 131.254C333.038 131.254 335.934 128.358 335.934 124.787C335.934 121.215 333.038 118.32 329.467 118.32C325.895 118.32 323 121.215 323 124.787C323 128.358 325.895 131.254 329.467 131.254Z" fill="#F2F2F2"/>
<path id="Vector_33" d="M356.467 53.9338C360.038 53.9338 362.934 51.0385 362.934 47.4669C362.934 43.8953 360.038 41 356.467 41C352.895 41 350 43.8953 350 47.4669C350 51.0385 352.895 53.9338 356.467 53.9338Z" fill="#F2F2F2"/>
<path id="Vector_34" d="M356.467 79.7071C360.038 79.7071 362.934 76.8117 362.934 73.2402C362.934 69.6686 360.038 66.7733 356.467 66.7733C352.895 66.7733 350 69.6686 350 73.2402C350 76.8117 352.895 79.7071 356.467 79.7071Z" fill="#F2F2F2"/>
<path id="Vector_35" d="M356.467 105.48C360.038 105.48 362.934 102.585 362.934 99.0135C362.934 95.4419 360.038 92.5466 356.467 92.5466C352.895 92.5466 350 95.4419 350 99.0135C350 102.585 352.895 105.48 356.467 105.48Z" fill="#F2F2F2"/>
<path id="Vector_36" d="M356.467 131.254C360.038 131.254 362.934 128.358 362.934 124.787C362.934 121.215 360.038 118.32 356.467 118.32C352.895 118.32 350 121.215 350 124.787C350 128.358 352.895 131.254 356.467 131.254Z" fill="#F2F2F2"/>
<path id="Vector_37" d="M383.467 53.9338C387.038 53.9338 389.934 51.0385 389.934 47.4669C389.934 43.8953 387.038 41 383.467 41C379.895 41 377 43.8953 377 47.4669C377 51.0385 379.895 53.9338 383.467 53.9338Z" fill="#F2F2F2"/>
<path id="Vector_38" d="M383.467 79.7071C387.038 79.7071 389.934 76.8117 389.934 73.2402C389.934 69.6686 387.038 66.7733 383.467 66.7733C379.895 66.7733 377 69.6686 377 73.2402C377 76.8117 379.895 79.7071 383.467 79.7071Z" fill="#F2F2F2"/>
<path id="Vector_39" d="M383.467 105.48C387.038 105.48 389.934 102.585 389.934 99.0135C389.934 95.4419 387.038 92.5466 383.467 92.5466C379.895 92.5466 377 95.4419 377 99.0135C377 102.585 379.895 105.48 383.467 105.48Z" fill="#F2F2F2"/>
<path id="Vector_40" d="M383.467 131.254C387.038 131.254 389.934 128.358 389.934 124.787C389.934 121.215 387.038 118.32 383.467 118.32C379.895 118.32 377 121.215 377 124.787C377 128.358 379.895 131.254 383.467 131.254Z" fill="#F2F2F2"/>
<path id="Vector_41" d="M410.467 53.9338C414.038 53.9338 416.934 51.0385 416.934 47.4669C416.934 43.8953 414.038 41 410.467 41C406.895 41 404 43.8953 404 47.4669C404 51.0385 406.895 53.9338 410.467 53.9338Z" fill="#F2F2F2"/>
<path id="Vector_42" d="M410.467 79.7071C414.038 79.7071 416.934 76.8117 416.934 73.2402C416.934 69.6686 414.038 66.7733 410.467 66.7733C406.895 66.7733 404 69.6686 404 73.2402C404 76.8117 406.895 79.7071 410.467 79.7071Z" fill="#F2F2F2"/>
<path id="Vector_43" d="M410.467 105.48C414.038 105.48 416.934 102.585 416.934 99.0135C416.934 95.4419 414.038 92.5466 410.467 92.5466C406.895 92.5466 404 95.4419 404 99.0135C404 102.585 406.895 105.48 410.467 105.48Z" fill="#F2F2F2"/>
<path id="Vector_44" d="M410.467 131.254C414.038 131.254 416.934 128.358 416.934 124.787C416.934 121.215 414.038 118.32 410.467 118.32C406.895 118.32 404 121.215 404 124.787C404 128.358 406.895 131.254 410.467 131.254Z" fill="#F2F2F2"/>
<path id="Vector_45" d="M437.467 53.9338C441.038 53.9338 443.934 51.0385 443.934 47.4669C443.934 43.8953 441.038 41 437.467 41C433.895 41 431 43.8953 431 47.4669C431 51.0385 433.895 53.9338 437.467 53.9338Z" fill="#F2F2F2"/>
<path id="Vector_46" d="M437.467 79.7071C441.038 79.7071 443.934 76.8117 443.934 73.2402C443.934 69.6686 441.038 66.7733 437.467 66.7733C433.895 66.7733 431 69.6686 431 73.2402C431 76.8117 433.895 79.7071 437.467 79.7071Z" fill="#F2F2F2"/>
<path id="Vector_47" d="M437.467 105.48C441.038 105.48 443.934 102.585 443.934 99.0135C443.934 95.4419 441.038 92.5466 437.467 92.5466C433.895 92.5466 431 95.4419 431 99.0135C431 102.585 433.895 105.48 437.467 105.48Z" fill="#F2F2F2"/>
<path id="Vector_48" d="M437.467 131.254C441.038 131.254 443.934 128.358 443.934 124.787C443.934 121.215 441.038 118.32 437.467 118.32C433.895 118.32 431 121.215 431 124.787C431 128.358 433.895 131.254 437.467 131.254Z" fill="#F2F2F2"/>
<path id="Vector_49" d="M302.467 53.9338C306.038 53.9338 308.934 51.0385 308.934 47.4669C308.934 43.8953 306.038 41 302.467 41C298.895 41 296 43.8953 296 47.4669C296 51.0385 298.895 53.9338 302.467 53.9338Z" fill="#F2F2F2"/>
<path id="Vector_50" d="M302.467 79.7071C306.038 79.7071 308.934 76.8117 308.934 73.2402C308.934 69.6686 306.038 66.7733 302.467 66.7733C298.895 66.7733 296 69.6686 296 73.2402C296 76.8117 298.895 79.7071 302.467 79.7071Z" fill="#F2F2F2"/>
<path id="Vector_51" d="M302.467 105.48C306.038 105.48 308.934 102.585 308.934 99.0135C308.934 95.4419 306.038 92.5466 302.467 92.5466C298.895 92.5466 296 95.4419 296 99.0135C296 102.585 298.895 105.48 302.467 105.48Z" fill="#F2F2F2"/>
<path id="Vector_52" d="M302.467 131.254C306.038 131.254 308.934 128.358 308.934 124.787C308.934 121.215 306.038 118.32 302.467 118.32C298.895 118.32 296 121.215 296 124.787C296 128.358 298.895 131.254 302.467 131.254Z" fill="#F2F2F2"/>
<path id="Vector_53" d="M329.467 53.9338C333.038 53.9338 335.934 51.0385 335.934 47.4669C335.934 43.8953 333.038 41 329.467 41C325.895 41 323 43.8953 323 47.4669C323 51.0385 325.895 53.9338 329.467 53.9338Z" fill="#F2F2F2"/>
<path id="Vector_54" d="M329.467 79.7071C333.038 79.7071 335.934 76.8117 335.934 73.2402C335.934 69.6686 333.038 66.7733 329.467 66.7733C325.895 66.7733 323 69.6686 323 73.2402C323 76.8117 325.895 79.7071 329.467 79.7071Z" fill="#F2F2F2"/>
<path id="Vector_55" d="M329.467 105.48C333.038 105.48 335.934 102.585 335.934 99.0135C335.934 95.4419 333.038 92.5466 329.467 92.5466C325.895 92.5466 323 95.4419 323 99.0135C323 102.585 325.895 105.48 329.467 105.48Z" fill="#F2F2F2"/>
<path id="Vector_56" d="M329.467 131.254C333.038 131.254 335.934 128.358 335.934 124.787C335.934 121.215 333.038 118.32 329.467 118.32C325.895 118.32 323 121.215 323 124.787C323 128.358 325.895 131.254 329.467 131.254Z" fill="#F2F2F2"/>
<path id="Vector_57" d="M356.467 53.9338C360.038 53.9338 362.934 51.0385 362.934 47.4669C362.934 43.8953 360.038 41 356.467 41C352.895 41 350 43.8953 350 47.4669C350 51.0385 352.895 53.9338 356.467 53.9338Z" fill="#F2F2F2"/>
<path id="Vector_58" d="M356.467 79.7071C360.038 79.7071 362.934 76.8117 362.934 73.2402C362.934 69.6686 360.038 66.7733 356.467 66.7733C352.895 66.7733 350 69.6686 350 73.2402C350 76.8117 352.895 79.7071 356.467 79.7071Z" fill="#F2F2F2"/>
<path id="Vector_59" d="M356.467 105.48C360.038 105.48 362.934 102.585 362.934 99.0135C362.934 95.4419 360.038 92.5466 356.467 92.5466C352.895 92.5466 350 95.4419 350 99.0135C350 102.585 352.895 105.48 356.467 105.48Z" fill="#F2F2F2"/>
<path id="Vector_60" d="M356.467 131.254C360.038 131.254 362.934 128.358 362.934 124.787C362.934 121.215 360.038 118.32 356.467 118.32C352.895 118.32 350 121.215 350 124.787C350 128.358 352.895 131.254 356.467 131.254Z" fill="#F2F2F2"/>
<path id="Vector_61" d="M383.467 53.9338C387.038 53.9338 389.934 51.0385 389.934 47.4669C389.934 43.8953 387.038 41 383.467 41C379.895 41 377 43.8953 377 47.4669C377 51.0385 379.895 53.9338 383.467 53.9338Z" fill="#F2F2F2"/>
<path id="Vector_62" d="M383.467 79.7071C387.038 79.7071 389.934 76.8117 389.934 73.2402C389.934 69.6686 387.038 66.7733 383.467 66.7733C379.895 66.7733 377 69.6686 377 73.2402C377 76.8117 379.895 79.7071 383.467 79.7071Z" fill="#F2F2F2"/>
<path id="Vector_63" d="M383.467 105.48C387.038 105.48 389.934 102.585 389.934 99.0135C389.934 95.4419 387.038 92.5466 383.467 92.5466C379.895 92.5466 377 95.4419 377 99.0135C377 102.585 379.895 105.48 383.467 105.48Z" fill="#F2F2F2"/>
<path id="Vector_64" d="M383.467 131.254C387.038 131.254 389.934 128.358 389.934 124.787C389.934 121.215 387.038 118.32 383.467 118.32C379.895 118.32 377 121.215 377 124.787C377 128.358 379.895 131.254 383.467 131.254Z" fill="#F2F2F2"/>
<path id="Vector_65" d="M410.467 53.9338C414.038 53.9338 416.934 51.0385 416.934 47.4669C416.934 43.8953 414.038 41 410.467 41C406.895 41 404 43.8953 404 47.4669C404 51.0385 406.895 53.9338 410.467 53.9338Z" fill="#F2F2F2"/>
<path id="Vector_66" d="M410.467 79.7071C414.038 79.7071 416.934 76.8117 416.934 73.2402C416.934 69.6686 414.038 66.7733 410.467 66.7733C406.895 66.7733 404 69.6686 404 73.2402C404 76.8117 406.895 79.7071 410.467 79.7071Z" fill="#F2F2F2"/>
<path id="Vector_67" d="M410.467 105.48C414.038 105.48 416.934 102.585 416.934 99.0135C416.934 95.4419 414.038 92.5466 410.467 92.5466C406.895 92.5466 404 95.4419 404 99.0135C404 102.585 406.895 105.48 410.467 105.48Z" fill="#F2F2F2"/>
<path id="Vector_68" d="M410.467 131.254C414.038 131.254 416.934 128.358 416.934 124.787C416.934 121.215 414.038 118.32 410.467 118.32C406.895 118.32 404 121.215 404 124.787C404 128.358 406.895 131.254 410.467 131.254Z" fill="#F2F2F2"/>
<path id="Vector_69" d="M437.467 53.9338C441.038 53.9338 443.934 51.0385 443.934 47.4669C443.934 43.8953 441.038 41 437.467 41C433.895 41 431 43.8953 431 47.4669C431 51.0385 433.895 53.9338 437.467 53.9338Z" fill="#F2F2F2"/>
<path id="Vector_70" d="M437.467 79.7071C441.038 79.7071 443.934 76.8117 443.934 73.2402C443.934 69.6686 441.038 66.7733 437.467 66.7733C433.895 66.7733 431 69.6686 431 73.2402C431 76.8117 433.895 79.7071 437.467 79.7071Z" fill="#F2F2F2"/>
<path id="Vector_71" d="M437.467 105.48C441.038 105.48 443.934 102.585 443.934 99.0135C443.934 95.4419 441.038 92.5466 437.467 92.5466C433.895 92.5466 431 95.4419 431 99.0135C431 102.585 433.895 105.48 437.467 105.48Z" fill="#F2F2F2"/>
<path id="Vector_72" d="M437.467 131.254C441.038 131.254 443.934 128.358 443.934 124.787C443.934 121.215 441.038 118.32 437.467 118.32C433.895 118.32 431 121.215 431 124.787C431 128.358 433.895 131.254 437.467 131.254Z" fill="#F2F2F2"/>
</g>
<g id="Card2">
<path id="Vector_73" d="M441 348H285C280.493 347.995 276.172 346.202 272.985 343.015C269.798 339.828 268.005 335.507 268 331V204C268.005 199.493 269.798 195.172 272.985 191.985C276.172 188.798 280.493 187.005 285 187H441C445.507 187.005 449.828 188.798 453.015 191.985C456.202 195.172 457.995 199.493 458 204V331C457.995 335.507 456.202 339.828 453.015 343.015C449.828 346.202 445.507 347.995 441 348ZM285 189C281.023 189.004 277.21 190.586 274.398 193.398C271.586 196.21 270.004 200.023 270 204V331C270.004 334.977 271.586 338.79 274.398 341.602C277.21 344.414 281.023 345.996 285 346H441C444.977 345.996 448.79 344.414 451.602 341.602C454.414 338.79 455.996 334.977 456 331V204C455.996 200.023 454.414 196.21 451.602 193.398C448.79 190.586 444.977 189.004 441 189H285Z" fill="#3F3D56"/>
<g id="Header">
<path id="Path 419" d="M423.269 225.138H344.537C343.845 225.152 343.174 224.903 342.659 224.441C342.143 223.979 341.823 223.338 341.762 222.649C341.743 222.292 341.796 221.935 341.92 221.6C342.043 221.264 342.233 220.958 342.479 220.698C342.725 220.439 343.021 220.232 343.349 220.091C343.678 219.95 344.031 219.877 344.389 219.877H424.532C427.172 222.197 425.563 225.138 423.268 225.138H423.269Z" fill="#224957"/>
<path id="Path 420" d="M423.269 238.948H344.537C343.845 238.962 343.174 238.713 342.659 238.251C342.143 237.789 341.823 237.148 341.762 236.459C341.743 236.102 341.796 235.745 341.92 235.41C342.043 235.074 342.233 234.768 342.479 234.508C342.725 234.249 343.021 234.042 343.349 233.901C343.678 233.76 344.031 233.687 344.389 233.687H424.532C427.172 236.007 425.563 238.948 423.268 238.948H423.269Z" fill="#224957"/>
<path id="Path 421" d="M327.518 246.811H303.49C302.705 246.81 301.953 246.498 301.398 245.943C300.843 245.389 300.531 244.637 300.531 243.852V215.497C300.531 214.712 300.843 213.96 301.398 213.406C301.953 212.851 302.705 212.539 303.49 212.538H327.518C328.302 212.539 329.054 212.851 329.609 213.406C330.163 213.961 330.476 214.713 330.477 215.497V243.852C330.476 244.637 330.164 245.389 329.609 245.943C329.054 246.498 328.302 246.81 327.518 246.811V246.811Z" fill="#CCCCCC"/>
</g>
<g id="Body">
<path id="Path 422" d="M422.517 323.811H398.49C397.705 323.81 396.953 323.498 396.398 322.943C395.843 322.389 395.531 321.637 395.53 320.852V304.497C395.531 303.712 395.843 302.96 396.398 302.406C396.953 301.851 397.705 301.539 398.49 301.538H422.517C423.302 301.539 424.054 301.851 424.609 302.406C425.163 302.961 425.475 303.713 425.477 304.497V320.852C425.476 321.637 425.164 322.389 424.609 322.943C424.054 323.498 423.302 323.81 422.517 323.811V323.811Z" fill="#224957"/>
<path id="Path 423" d="M423.04 267.224H302.881C302.189 267.238 301.518 266.989 301.003 266.527C300.487 266.065 300.167 265.424 300.106 264.735C300.087 264.378 300.14 264.021 300.264 263.686C300.387 263.35 300.577 263.044 300.823 262.784C301.069 262.525 301.365 262.318 301.693 262.177C302.022 262.036 302.375 261.963 302.732 261.963H424.304C426.944 264.283 425.335 267.224 423.04 267.224V267.224Z" fill="#CCCCCC"/>
<path id="Path 424" d="M423.04 281.038H302.881C302.189 281.052 301.518 280.803 301.003 280.341C300.487 279.879 300.167 279.238 300.106 278.549C300.087 278.192 300.14 277.835 300.264 277.5C300.387 277.164 300.577 276.858 300.823 276.598C301.069 276.339 301.365 276.132 301.693 275.991C302.022 275.85 302.375 275.777 302.732 275.777H424.304C426.944 278.097 425.335 281.038 423.04 281.038V281.038Z" fill="#CCCCCC"/>
<path id="Path 425" d="M423.04 294.843H302.881C302.189 294.857 301.518 294.608 301.003 294.146C300.487 293.684 300.167 293.043 300.106 292.354C300.087 291.997 300.14 291.64 300.264 291.305C300.387 290.969 300.577 290.663 300.823 290.403C301.069 290.144 301.365 289.937 301.693 289.796C302.022 289.655 302.375 289.582 302.732 289.582H424.304C426.944 291.902 425.335 294.843 423.04 294.843V294.843Z" fill="#CCCCCC"/>
<path id="Path 426" d="M360.04 308.656H302.881C302.189 308.67 301.518 308.421 301.003 307.959C300.487 307.497 300.167 306.856 300.106 306.167C300.087 305.81 300.14 305.453 300.264 305.118C300.387 304.782 300.577 304.476 300.823 304.216C301.069 303.957 301.365 303.75 301.693 303.609C302.022 303.468 302.375 303.395 302.732 303.395H361.304C363.944 305.715 362.335 308.656 360.04 308.656V308.656Z" fill="#CCCCCC"/>
<path id="Path 427" d="M360.04 322.462H302.881C302.189 322.476 301.518 322.227 301.003 321.765C300.487 321.303 300.167 320.662 300.106 319.973C300.087 319.616 300.14 319.259 300.264 318.924C300.387 318.588 300.577 318.282 300.823 318.022C301.069 317.763 301.365 317.556 301.693 317.415C302.022 317.274 302.375 317.201 302.732 317.201H361.304C363.944 319.521 362.335 322.462 360.04 322.462V322.462Z" fill="#CCCCCC"/>
</g>
<path id="Vector_74" d="M407 200H319C317.674 199.998 316.403 199.471 315.466 198.534C314.529 197.596 314.002 196.326 314 195V179C314.002 177.674 314.529 176.404 315.466 175.466C316.403 174.529 317.674 174.002 319 174H407C408.326 174.002 409.597 174.529 410.534 175.466C411.471 176.404 411.998 177.674 412 179V195C411.998 196.326 411.471 197.596 410.534 198.534C409.597 199.471 408.326 199.998 407 200Z" fill="#20DF7F"/>
</g>
<g id="Card1">
<path id="Vector_75" d="M176 174H20C15.4929 173.995 11.1718 172.202 7.9848 169.015C4.79778 165.828 3.00507 161.507 3 157V30C3.00507 25.4929 4.79778 21.1718 7.9848 17.9848C11.1718 14.7978 15.4929 13.0051 20 13H176C180.507 13.0051 184.828 14.7978 188.015 17.9848C191.202 21.1718 192.995 25.4929 193 30V157C192.995 161.507 191.202 165.828 188.015 169.015C184.828 172.202 180.507 173.995 176 174V174ZM20 15C16.0231 15.0045 12.2104 16.5863 9.39838 19.3984C6.58631 22.2104 5.0045 26.0231 5 30V157C5.0045 160.977 6.58631 164.79 9.39838 167.602C12.2104 170.414 16.0231 171.996 20 172H176C179.977 171.996 183.79 170.414 186.602 167.602C189.414 164.79 190.996 160.977 191 157V30C190.996 26.0231 189.414 22.2104 186.602 19.3984C183.79 16.5863 179.977 15.0045 176 15H20Z" fill="#3F3D56"/>
<g id="Header_2">
<path id="Path 411" d="M158.269 51.138H79.5374C78.8454 51.152 78.174 50.9028 77.6587 50.4408C77.1435 49.9787 76.8229 49.3383 76.7617 48.6489C76.7425 48.2921 76.7962 47.9351 76.9196 47.5997C77.0429 47.2643 77.2333 46.9576 77.4791 46.6982C77.7249 46.4388 78.021 46.2322 78.3493 46.091C78.6775 45.9498 79.0311 45.877 79.3885 45.877H159.532C162.172 48.197 160.563 51.138 158.268 51.138L158.269 51.138Z" fill="#CCCCCC"/>
<path id="Path 412" d="M158.269 64.948H79.5374C78.8454 64.962 78.174 64.7129 77.6587 64.2508C77.1435 63.7888 76.8229 63.1483 76.7617 62.4589C76.7425 62.1021 76.7962 61.7451 76.9196 61.4097C77.0429 61.0743 77.2333 60.7676 77.4791 60.5082C77.7249 60.2488 78.021 60.0422 78.3493 59.901C78.6775 59.7598 79.0311 59.687 79.3885 59.687H159.532C162.172 62.007 160.563 64.948 158.268 64.948L158.269 64.948Z" fill="#CCCCCC"/>
<path id="Path 413" d="M62.5175 72.811H38.4896C37.705 72.8102 36.9528 72.4982 36.3981 71.9435C35.8433 71.3887 35.5313 70.6365 35.5305 69.852V41.497C35.5313 40.7125 35.8433 39.9603 36.3981 39.4055C36.9528 38.8508 37.705 38.5388 38.4896 38.538H62.5175C63.302 38.5391 64.054 38.8511 64.6087 39.4058C65.1634 39.9605 65.4755 40.7125 65.4766 41.497V69.852C65.4758 70.6365 65.1638 71.3887 64.609 71.9435C64.0543 72.4982 63.302 72.8102 62.5175 72.811V72.811Z" fill="#224957"/>
</g>
<g id="Body_2">
<path id="Path 414" d="M158.04 93.224H37.8813C37.1894 93.238 36.5179 92.9889 36.0027 92.5268C35.4875 92.0648 35.1669 91.4243 35.1057 90.735C35.0865 90.3781 35.1402 90.0212 35.2636 89.6858C35.3869 89.3504 35.5773 89.0436 35.8231 88.7842C36.0689 88.5248 36.365 88.3182 36.6933 88.1771C37.0215 88.0359 37.3751 87.9631 37.7325 87.9631H159.304C161.944 90.2831 160.335 93.2241 158.04 93.2241V93.224Z" fill="#CCCCCC"/>
<path id="Path 415" d="M158.04 107.038H37.8813C37.1894 107.052 36.5179 106.803 36.0027 106.341C35.4875 105.879 35.1669 105.238 35.1057 104.549C35.0865 104.192 35.1402 103.835 35.2636 103.5C35.3869 103.164 35.5773 102.858 35.8231 102.598C36.0689 102.339 36.365 102.132 36.6933 101.991C37.0215 101.85 37.3751 101.777 37.7325 101.777H159.304C161.944 104.097 160.335 107.038 158.04 107.038V107.038Z" fill="#CCCCCC"/>
<path id="Path 416" d="M158.04 120.843H37.8813C37.1894 120.857 36.5179 120.608 36.0027 120.146C35.4875 119.684 35.1669 119.043 35.1057 118.354C35.0865 117.997 35.1402 117.64 35.2636 117.305C35.3869 116.969 35.5773 116.663 35.8231 116.403C36.0689 116.144 36.365 115.937 36.6933 115.796C37.0215 115.655 37.3751 115.582 37.7325 115.582H159.304C161.944 117.902 160.335 120.843 158.04 120.843V120.843Z" fill="#CCCCCC"/>
<path id="Path 417" d="M158.04 134.656H37.8813C37.1894 134.67 36.5179 134.421 36.0027 133.959C35.4875 133.497 35.1669 132.856 35.1057 132.167C35.0865 131.81 35.1402 131.453 35.2636 131.118C35.3869 130.782 35.5773 130.476 35.8231 130.216C36.0689 129.957 36.365 129.75 36.6933 129.609C37.0215 129.468 37.3751 129.395 37.7325 129.395H159.304C161.944 131.715 160.335 134.656 158.04 134.656V134.656Z" fill="#CCCCCC"/>
<path id="Path 418" d="M158.04 148.462H37.8813C37.1894 148.476 36.5179 148.227 36.0027 147.765C35.4875 147.303 35.1669 146.662 35.1057 145.973C35.0865 145.616 35.1402 145.259 35.2636 144.924C35.3869 144.588 35.5773 144.282 35.8231 144.022C36.0689 143.763 36.365 143.556 36.6933 143.415C37.0215 143.274 37.3751 143.201 37.7325 143.201H159.304C161.944 145.521 160.335 148.462 158.04 148.462Z" fill="#CCCCCC"/>
</g>
<path id="Vector_76" d="M142 0C143.326 0.00151655 144.597 0.528787 145.534 1.46614C146.471 2.40349 146.998 3.67438 147 5V21C146.998 22.3256 146.471 23.5965 145.534 24.5339C144.597 25.4712 143.326 25.9985 142 26H54C52.6744 25.9985 51.4035 25.4712 50.4661 24.5339C49.5288 23.5965 49.0015 22.3256 49 21V5C49.0015 3.67438 49.5288 2.40349 50.4661 1.46614C51.4035 0.528787 52.6744 0.00151655 54 0" fill="#20DF7F"/>
</g>
</g>
</svg>
