<svg width="164" height="68" viewBox="0 0 164 68" fill="none" xmlns="http://www.w3.org/2000/svg">
<path d="M13.5155 67.727C13.0141 67.727 12.7155 67.5186 12.5521 67.096L7.26197 54.6341L5.70704 57.6144V66.8876C5.70704 67.4341 5.41408 67.727 4.8676 67.727H0.839436C0.292958 67.727 0 67.4341 0 66.8876V34.9946C0 34.4482 0.292958 34.1552 0.839436 34.1552H4.8676C5.41408 34.1552 5.70704 34.4482 5.70704 34.9946V48.0031L12.169 34.7862C12.3775 34.3693 12.6704 34.1552 13.1324 34.1552H17.538C18.169 34.1552 18.4169 34.5721 18.1239 35.1637L10.9915 49.8115L18.5859 66.7636C18.8789 67.3101 18.6253 67.727 17.9549 67.727H13.5155Z" fill="white"/>
<path d="M38.4 39.0229C38.4 39.4454 38.231 39.7384 37.7296 39.7384H27.2395V48.1327H35.2564C35.6733 48.1327 35.9268 48.3863 35.9268 48.8482V53.0003C35.9268 53.4623 35.6733 53.7158 35.2564 53.7158H27.2395V62.1947H37.7296C38.231 62.1947 38.4 62.4031 38.4 62.8651V67.0623C38.4 67.4792 38.231 67.7327 37.7296 67.7327H22.2874C21.9099 67.7327 21.6564 67.4792 21.6564 67.0623V34.8257C21.6564 34.4032 21.9099 34.1553 22.2874 34.1553H37.7296C38.231 34.1553 38.4 34.4088 38.4 34.8257V39.0229Z" fill="white"/>
<path d="M59.3405 39.0229C59.3405 39.4454 59.1714 39.7384 58.67 39.7384H48.1799V48.1327H56.1968C56.6137 48.1327 56.8672 48.3863 56.8672 48.8482V53.0003C56.8672 53.4623 56.6137 53.7158 56.1968 53.7158H48.1799V62.1947H58.67C59.1714 62.1947 59.3405 62.4031 59.3405 62.8651V67.0623C59.3405 67.4792 59.1714 67.7327 58.67 67.7327H43.2278C42.8503 67.7327 42.5968 67.4792 42.5968 67.0623V34.8257C42.5968 34.4032 42.8503 34.1553 43.2278 34.1553H58.67C59.1714 34.1553 59.3405 34.4088 59.3405 34.8257V39.0229Z" fill="white"/>
<path d="M80.7835 34.1553C81.2004 34.1553 81.4539 34.4088 81.4539 34.8257V67.0567C81.4539 67.4736 81.2004 67.7271 80.7835 67.7271H76.6314C76.2539 67.7271 76.0004 67.5581 75.8765 67.1806L69.4539 49.2595H69.2455V67.051C69.2455 67.4679 69.037 67.7215 68.5751 67.7215H64.2089C63.792 67.7215 63.5385 67.4679 63.5385 67.051V34.8257C63.5385 34.4032 63.792 34.1553 64.2089 34.1553H68.361C68.7384 34.1553 68.992 34.3243 69.1159 34.7018L75.4934 52.5384H75.7469V34.8257C75.7469 34.4032 75.9553 34.1553 76.4173 34.1553H80.7835Z" fill="white"/>
<path d="M102.394 39.0229C102.394 39.4454 102.225 39.7384 101.724 39.7384H91.2335V48.1327H99.2504C99.6673 48.1327 99.9208 48.3863 99.9208 48.8482V53.0003C99.9208 53.4623 99.6673 53.7158 99.2504 53.7158H91.2335V62.1947H101.724C102.225 62.1947 102.394 62.4031 102.394 62.8651V67.0623C102.394 67.4792 102.225 67.7327 101.724 67.7327H86.2814C85.9039 67.7327 85.6504 67.4792 85.6504 67.0623V34.8257C85.6504 34.4032 85.9039 34.1553 86.2814 34.1553H101.724C102.225 34.1553 102.394 34.4088 102.394 34.8257V39.0229Z" fill="white"/>
<path d="M123.42 50.437C123.42 53.2482 122.372 55.0961 120.355 55.975L123.251 66.9722C123.375 67.4736 123.127 67.7271 122.665 67.7271H118.299C117.876 67.7271 117.668 67.5186 117.583 67.1412L114.772 56.482H111.876V67.0567C111.876 67.4736 111.622 67.7271 111.206 67.7271H106.839C106.422 67.7271 106.169 67.4736 106.169 67.0567V34.8257C106.169 34.4032 106.422 34.1553 106.839 34.1553H117.375C121.318 34.1553 123.42 36.251 123.42 40.2003V50.437ZM116.034 50.944C117.127 50.944 117.713 50.3581 117.713 49.2651V41.3778C117.713 40.2848 117.127 39.6989 116.034 39.6989H111.876V50.944H116.034Z" fill="white"/>
<path d="M127.617 63.0285C127.617 62.482 127.91 62.1891 128.456 62.1891H132.276C132.823 62.1891 133.116 62.482 133.116 63.0285V66.8877C133.116 67.4342 132.823 67.7271 132.276 67.7271H128.456C127.91 67.7271 127.617 67.4342 127.617 66.8877V63.0285Z" fill="white"/>
<path d="M142.344 34.1553C142.761 34.1553 143.014 34.4088 143.014 34.8257V67.0567C143.014 67.4736 142.761 67.7271 142.344 67.7271H137.978C137.516 67.7271 137.307 67.4736 137.307 67.0567V34.8257C137.307 34.4032 137.516 34.1553 137.978 34.1553H142.344Z" fill="white"/>
<path d="M147.211 40.2003C147.211 36.2567 149.307 34.1553 153.256 34.1553H157.955C161.898 34.1553 164 36.251 164 40.2003V61.6877C164 65.6313 161.904 67.7327 157.955 67.7327H153.256C149.312 67.7327 147.211 65.6369 147.211 61.6877V40.2003ZM156.907 62.313C158 62.313 158.586 61.7665 158.586 60.6341V41.2482C158.586 40.1553 158 39.5694 156.907 39.5694H154.473C153.38 39.5694 152.794 40.1553 152.794 41.2482V60.6341C152.794 61.7665 153.38 62.313 154.473 62.313H156.907Z" fill="white"/>
<path d="M154.693 0.324233C151.149 -0.988442 146.772 1.80029 148.693 6.60028L138.259 15.1186C138.259 15.1186 135.178 12.5665 132.13 15.4115L122.028 8.75803C122.028 8.75803 123.769 4.90451 119.572 2.84254C115.369 0.780571 111.504 5.82845 113.521 9.09042L102.237 18.02C102.237 18.02 99.4932 15.22 96.0171 18.4031C92.541 21.5806 95.4706 26.8763 99.5326 26.2735C103.589 25.6707 104.89 21.6425 103.521 19.6313L114.806 10.7073C114.806 10.7073 117.944 13.0059 120.851 10.4876L131.009 17.1411C131.009 17.1411 129.189 20.989 133.696 23.0622C138.203 25.1355 141.679 19.9749 139.549 16.7299L149.983 8.21719C149.983 8.21719 152.383 10.4989 155.578 8.36366C158.772 6.23409 158.237 1.64254 154.693 0.324233ZM99.3298 24.5327C97.7241 24.5327 96.4284 23.2313 96.4284 21.6313C96.4284 20.0313 97.7241 18.7355 99.3298 18.7355C100.254 18.7355 101.071 19.1637 101.595 19.8341C101.995 20.3299 102.226 20.9496 102.226 21.6313C102.226 23.2313 100.93 24.5327 99.3298 24.5327ZM120.113 8.67916C119.6 9.46225 118.71 9.9862 117.69 9.9862C116.766 9.9862 115.949 9.55239 115.42 8.88197C115.026 8.3862 114.795 7.76648 114.795 7.08479C114.795 5.48479 116.09 4.18338 117.69 4.18338C119.296 4.18338 120.592 5.48479 120.592 7.08479C120.597 7.67071 120.417 8.21718 120.113 8.67916ZM135.352 21.6313C133.752 21.6313 132.457 20.3355 132.457 18.7355C132.457 18.1496 132.631 17.5975 132.93 17.1411C133.448 16.3524 134.338 15.8341 135.352 15.8341C136.271 15.8341 137.082 16.2566 137.606 16.9158C138.011 17.4115 138.254 18.0482 138.254 18.7355C138.254 20.3355 136.958 21.6313 135.352 21.6313ZM152.873 7.49606C151.966 7.49606 151.149 7.07352 150.62 6.41437C150.214 5.91859 149.978 5.28198 149.978 4.59465C149.978 2.99465 151.273 1.69888 152.873 1.69888C154.479 1.69888 155.775 2.99465 155.775 4.59465C155.775 6.19465 154.479 7.49606 152.873 7.49606Z" fill="white"/>
</svg>
